<svg width="60" height="60" viewBox="0 0 60 60" fill="none" xmlns="http://www.w3.org/2000/svg">
<circle cx="30" cy="30" r="28.5" stroke="black" stroke-width="3"/>
<path d="M48.3667 15.4333H47.1V14.4833C47.0993 13.8956 46.8656 13.3322 46.45 12.9166C46.0345 12.5011 45.471 12.2673 44.8833 12.2667H43.7193C43.5392 11.8879 43.2556 11.5679 42.9011 11.3437C42.5467 11.1196 42.136 11.0004 41.7167 11H39.8167C39.229 11.0007 38.6655 11.2344 38.25 11.65C37.8344 12.0655 37.6007 12.629 37.6 13.2167V15.4333H35.8407C35.74 15.3093 35.6262 15.1965 35.5014 15.0967L32.929 13.0388C32.8544 12.9791 32.7672 12.937 32.674 12.9158C32.5808 12.8946 32.484 12.8947 32.3909 12.9162L25.5398 14.4973C24.986 14.6242 24.5022 14.9594 24.1889 15.4333H22.4V13.2167C22.3993 12.629 22.1656 12.0655 21.75 11.65C21.3345 11.2344 20.771 11.0007 20.1833 11H18.2833C17.864 11.0004 17.4533 11.1196 17.0989 11.3437C16.7444 11.5679 16.4608 11.8879 16.2807 12.2667H15.1167C14.529 12.2673 13.9655 12.5011 13.55 12.9166C13.1344 13.3322 12.9007 13.8956 12.9 14.4833V15.4333H11.6333C11.4654 15.4333 11.3043 15.5001 11.1855 15.6188C11.0667 15.7376 11 15.8987 11 16.0667V19.8667C11 20.0346 11.0667 20.1957 11.1855 20.3145C11.3043 20.4333 11.4654 20.5 11.6333 20.5H12.9V21.45C12.9007 22.0377 13.1344 22.6011 13.55 23.0167C13.9655 23.4323 14.529 23.666 15.1167 23.6667H16.2807C16.4608 24.0454 16.7444 24.3654 17.0989 24.5896C17.4533 24.8138 17.864 24.933 18.2833 24.9333H20.1833C20.771 24.9327 21.3345 24.6989 21.75 24.2834C22.1656 23.8678 22.3993 23.3044 22.4 22.7167V20.5H24.2584L24.9233 26.152L22.5375 34.9L23.7595 35.2333L26.1777 26.3666C26.199 26.2883 26.2051 26.2066 26.1957 26.126L25.0948 16.7681C25.0672 16.5357 25.1264 16.3013 25.2611 16.11C25.3958 15.9186 25.5965 15.7838 25.8246 15.7314L32.3771 14.2193L34.7101 16.0858C34.8217 16.1746 34.9116 16.2874 34.9734 16.4159C35.0351 16.5443 35.067 16.6851 35.0667 16.8276V20.3505L32.6002 25.2834C32.5456 25.3926 32.5237 25.5153 32.5372 25.6366L34.3796 42.2182C34.4071 42.4687 34.3802 42.7221 34.3009 42.9613L32.9267 47.0838C32.8638 47.273 32.7429 47.4376 32.5811 47.5542C32.4193 47.6709 32.2249 47.7335 32.0255 47.7333H25.4694C25.2661 47.7341 25.0679 47.6693 24.9043 47.5485C24.7408 47.4276 24.6205 47.2573 24.5614 47.0627L22.5746 40.6057C22.4774 40.2902 22.472 39.9536 22.559 39.6352L23.4141 36.5L22.192 36.1667L21.3369 39.302C21.1867 39.8519 21.1961 40.4333 21.364 40.9782L23.3508 47.4352C23.4886 47.8892 23.7692 48.2867 24.1509 48.5686C24.5325 48.8505 24.9949 49.0018 25.4694 49H32.0255C32.4908 49.0004 32.9445 48.8542 33.322 48.5821C33.6995 48.31 33.9816 47.9259 34.1284 47.4843L35.5025 43.3618C35.6396 42.9487 35.6859 42.5109 35.6385 42.0783L33.8168 25.6826L36.2665 20.7832C36.3104 20.6953 36.3333 20.5983 36.3333 20.5H37.6V22.7167C37.6007 23.3044 37.8344 23.8678 38.25 24.2834C38.6655 24.6989 39.229 24.9327 39.8167 24.9333H41.7167C42.136 24.933 42.5467 24.8138 42.9011 24.5896C43.2556 24.3654 43.5392 24.0454 43.7193 23.6667H44.8833C45.471 23.666 46.0345 23.4323 46.45 23.0167C46.8656 22.6011 47.0993 22.0377 47.1 21.45V20.5H48.3667C48.5346 20.5 48.6957 20.4333 48.8145 20.3145C48.9333 20.1957 49 20.0346 49 19.8667V16.0667C49 15.8987 48.9333 15.7376 48.8145 15.6188C48.6957 15.5001 48.5346 15.4333 48.3667 15.4333ZM12.2667 19.2333V16.7H12.9V19.2333H12.2667ZM14.1667 21.45V14.4833C14.167 14.2315 14.2671 13.99 14.4452 13.8119C14.6233 13.6338 14.8648 13.5336 15.1167 13.5333H16.0667V22.4H15.1167C14.8648 22.3997 14.6233 22.2995 14.4452 22.1214C14.2671 21.9433 14.167 21.7019 14.1667 21.45V21.45ZM21.1333 22.7167C21.133 22.9685 21.0329 23.21 20.8548 23.3881C20.6767 23.5662 20.4352 23.6664 20.1833 23.6667H18.2833C18.0315 23.6664 17.79 23.5662 17.6119 23.3881C17.4338 23.21 17.3336 22.9685 17.3333 22.7167V13.2167C17.3336 12.9648 17.4338 12.7233 17.6119 12.5452C17.79 12.3671 18.0315 12.267 18.2833 12.2667H20.1833C20.4352 12.267 20.6767 12.3671 20.8548 12.5452C21.0329 12.7233 21.133 12.9648 21.1333 13.2167V22.7167ZM22.4 19.2333V16.7H23.8218C23.8233 16.7716 23.8283 16.8436 23.8367 16.9161L24.1094 19.2333H22.4ZM36.3333 19.2333V16.7H37.6V19.2333H36.3333ZM45.8333 21.45C45.833 21.7019 45.7329 21.9433 45.5548 22.1214C45.3767 22.2995 45.1352 22.3997 44.8833 22.4H43.9333V17.3333H42.6667V22.7167C42.6664 22.9685 42.5662 23.21 42.3881 23.3881C42.21 23.5662 41.9685 23.6664 41.7167 23.6667H39.8167C39.5648 23.6664 39.3233 23.5662 39.1452 23.3881C38.9671 23.21 38.867 22.9685 38.8667 22.7167V13.2167C38.867 12.9648 38.9671 12.7233 39.1452 12.5452C39.3233 12.3671 39.5648 12.267 39.8167 12.2667H41.7167C41.9685 12.267 42.21 12.3671 42.3881 12.5452C42.5662 12.7233 42.6664 12.9648 42.6667 13.2167V16.0667H43.9333V13.5333H44.8833C45.1352 13.5336 45.3767 13.6338 45.5548 13.8119C45.7329 13.99 45.833 14.2315 45.8333 14.4833V21.45ZM47.7333 19.2333H47.1V16.7H47.7333V19.2333Z" fill="black"/>
<path d="M29.3667 39.3858V32.5333H28.1V39.3858C28.0995 39.779 28.008 40.1668 27.8325 40.5187L25.6335 44.9168L26.7665 45.4832L28.9655 41.0852C29.2286 40.5573 29.366 39.9756 29.3667 39.3858V39.3858Z" fill="black"/>
</svg>
