<svg width="192" height="60" viewBox="0 0 192 60" fill="none" xmlns="http://www.w3.org/2000/svg">
<circle cx="162" cy="30" r="28.5" stroke="white" stroke-width="3"/>
<path d="M180.367 15.4333H179.1V14.4833C179.099 13.8956 178.866 13.3322 178.45 12.9166C178.034 12.5011 177.471 12.2673 176.883 12.2667H175.719C175.539 11.8879 175.256 11.5679 174.901 11.3437C174.547 11.1196 174.136 11.0004 173.717 11H171.817C171.229 11.0007 170.666 11.2344 170.25 11.65C169.834 12.0655 169.601 12.629 169.6 13.2167V15.4333H167.841C167.74 15.3093 167.626 15.1965 167.501 15.0967L164.929 13.0388C164.854 12.9791 164.767 12.937 164.674 12.9158C164.581 12.8946 164.484 12.8947 164.391 12.9162L157.54 14.4973C156.986 14.6242 156.502 14.9594 156.189 15.4333H154.4V13.2167C154.399 12.629 154.166 12.0655 153.75 11.65C153.334 11.2344 152.771 11.0007 152.183 11H150.283C149.864 11.0004 149.453 11.1196 149.099 11.3437C148.744 11.5679 148.461 11.8879 148.281 12.2667H147.117C146.529 12.2673 145.966 12.5011 145.55 12.9166C145.134 13.3322 144.901 13.8956 144.9 14.4833V15.4333H143.633C143.465 15.4333 143.304 15.5001 143.185 15.6188C143.067 15.7376 143 15.8987 143 16.0667V19.8667C143 20.0346 143.067 20.1957 143.185 20.3145C143.304 20.4333 143.465 20.5 143.633 20.5H144.9V21.45C144.901 22.0377 145.134 22.6011 145.55 23.0167C145.966 23.4323 146.529 23.666 147.117 23.6667H148.281C148.461 24.0454 148.744 24.3654 149.099 24.5896C149.453 24.8138 149.864 24.933 150.283 24.9333H152.183C152.771 24.9327 153.334 24.6989 153.75 24.2834C154.166 23.8678 154.399 23.3044 154.4 22.7167V20.5H156.258L156.923 26.152L154.537 34.9L155.76 35.2333L158.178 26.3666C158.199 26.2883 158.205 26.2066 158.196 26.126L157.095 16.7681C157.067 16.5357 157.126 16.3013 157.261 16.11C157.396 15.9186 157.597 15.7838 157.825 15.7314L164.377 14.2193L166.71 16.0858C166.822 16.1746 166.912 16.2874 166.973 16.4159C167.035 16.5443 167.067 16.6851 167.067 16.8276V20.3505L164.6 25.2834C164.546 25.3926 164.524 25.5153 164.537 25.6366L166.38 42.2182C166.407 42.4687 166.38 42.7221 166.301 42.9613L164.927 47.0838C164.864 47.273 164.743 47.4376 164.581 47.5542C164.419 47.6709 164.225 47.7335 164.025 47.7333H157.469C157.266 47.7341 157.068 47.6693 156.904 47.5485C156.741 47.4276 156.621 47.2573 156.561 47.0627L154.575 40.6057C154.477 40.2902 154.472 39.9536 154.559 39.6352L155.414 36.5L154.192 36.1667L153.337 39.302C153.187 39.8519 153.196 40.4333 153.364 40.9782L155.351 47.4352C155.489 47.8892 155.769 48.2867 156.151 48.5686C156.533 48.8505 156.995 49.0018 157.469 49H164.025C164.491 49.0004 164.944 48.8542 165.322 48.5821C165.699 48.31 165.982 47.9259 166.128 47.4843L167.503 43.3618C167.64 42.9487 167.686 42.5109 167.639 42.0783L165.817 25.6826L168.266 20.7832C168.31 20.6953 168.333 20.5983 168.333 20.5H169.6V22.7167C169.601 23.3044 169.834 23.8678 170.25 24.2834C170.666 24.6989 171.229 24.9327 171.817 24.9333H173.717C174.136 24.933 174.547 24.8138 174.901 24.5896C175.256 24.3654 175.539 24.0454 175.719 23.6667H176.883C177.471 23.666 178.034 23.4323 178.45 23.0167C178.866 22.6011 179.099 22.0377 179.1 21.45V20.5H180.367C180.535 20.5 180.696 20.4333 180.815 20.3145C180.933 20.1957 181 20.0346 181 19.8667V16.0667C181 15.8987 180.933 15.7376 180.815 15.6188C180.696 15.5001 180.535 15.4333 180.367 15.4333ZM144.267 19.2333V16.7H144.9V19.2333H144.267ZM146.167 21.45V14.4833C146.167 14.2315 146.267 13.99 146.445 13.8119C146.623 13.6338 146.865 13.5336 147.117 13.5333H148.067V22.4H147.117C146.865 22.3997 146.623 22.2995 146.445 22.1214C146.267 21.9433 146.167 21.7019 146.167 21.45V21.45ZM153.133 22.7167C153.133 22.9685 153.033 23.21 152.855 23.3881C152.677 23.5662 152.435 23.6664 152.183 23.6667H150.283C150.031 23.6664 149.79 23.5662 149.612 23.3881C149.434 23.21 149.334 22.9685 149.333 22.7167V13.2167C149.334 12.9648 149.434 12.7233 149.612 12.5452C149.79 12.3671 150.031 12.267 150.283 12.2667H152.183C152.435 12.267 152.677 12.3671 152.855 12.5452C153.033 12.7233 153.133 12.9648 153.133 13.2167V22.7167ZM154.4 19.2333V16.7H155.822C155.823 16.7716 155.828 16.8436 155.837 16.9161L156.109 19.2333H154.4ZM168.333 19.2333V16.7H169.6V19.2333H168.333ZM177.833 21.45C177.833 21.7019 177.733 21.9433 177.555 22.1214C177.377 22.2995 177.135 22.3997 176.883 22.4H175.933V17.3333H174.667V22.7167C174.666 22.9685 174.566 23.21 174.388 23.3881C174.21 23.5662 173.969 23.6664 173.717 23.6667H171.817C171.565 23.6664 171.323 23.5662 171.145 23.3881C170.967 23.21 170.867 22.9685 170.867 22.7167V13.2167C170.867 12.9648 170.967 12.7233 171.145 12.5452C171.323 12.3671 171.565 12.267 171.817 12.2667H173.717C173.969 12.267 174.21 12.3671 174.388 12.5452C174.566 12.7233 174.666 12.9648 174.667 13.2167V16.0667H175.933V13.5333H176.883C177.135 13.5336 177.377 13.6338 177.555 13.8119C177.733 13.99 177.833 14.2315 177.833 14.4833V21.45ZM179.733 19.2333H179.1V16.7H179.733V19.2333Z" fill="white"/>
<path d="M161.367 39.3858V32.5333H160.1V39.3858C160.1 39.779 160.008 40.1668 159.833 40.5187L157.634 44.9168L158.766 45.4832L160.965 41.0852C161.229 40.5573 161.366 39.9756 161.367 39.3858V39.3858Z" fill="white"/>
<path d="M21.824 37.8441H8.524L5.902 44.0001H0.81L12.78 17.4001H17.644L29.652 44.0001H24.484L21.824 37.8441ZM20.19 33.9681L15.174 22.3401L10.196 33.9681H20.19ZM57.4689 44.0001L57.4309 26.3681L48.6909 40.9601H46.4869L37.7469 26.5961V44.0001H33.0349V17.4001H37.1009L47.6649 35.0321L58.0389 17.4001H62.1049L62.1429 44.0001H57.4689ZM86.5799 37.8441H73.2799L70.6579 44.0001H65.5659L77.5359 17.4001H82.3999L94.4079 44.0001H89.2399L86.5799 37.8441ZM84.9459 33.9681L79.9299 22.3401L74.9519 33.9681H84.9459ZM115.584 30.3961H120.258V40.9981C118.89 42.0874 117.294 42.9234 115.47 43.5061C113.646 44.0887 111.771 44.3801 109.846 44.3801C107.135 44.3801 104.69 43.7974 102.512 42.6321C100.333 41.4414 98.623 39.8074 97.3817 37.7301C96.1403 35.6527 95.5197 33.3094 95.5197 30.7001C95.5197 28.0907 96.1403 25.7474 97.3817 23.6701C98.623 21.5927 100.333 19.9714 102.512 18.8061C104.716 17.6154 107.186 17.0201 109.922 17.0201C112.151 17.0201 114.178 17.3874 116.002 18.1221C117.826 18.8567 119.358 19.9334 120.6 21.3521L117.484 24.3921C115.457 22.3654 113.012 21.3521 110.15 21.3521C108.275 21.3521 106.603 21.7447 105.134 22.5301C103.69 23.3154 102.55 24.4174 101.714 25.8361C100.903 27.2547 100.498 28.8761 100.498 30.7001C100.498 32.4734 100.903 34.0694 101.714 35.4881C102.55 36.9067 103.69 38.0214 105.134 38.8321C106.603 39.6427 108.262 40.0481 110.112 40.0481C112.189 40.0481 114.013 39.5921 115.584 38.6801V30.3961Z" fill="white"/>
</svg>
